<svg width="58" height="60" viewBox="0 0 58 60" fill="none" xmlns="http://www.w3.org/2000/svg">
<path d="M57.19 40.5739L57.3598 40.6225C57.5802 40.0496 57.668 39.3963 57.5692 38.9017L52.6277 12.0503C52.5607 11.593 52.2864 11.1189 51.9058 10.6709C51.5251 10.2228 51.0642 9.90729 50.6611 9.73549L25.0187 0.664236C24.1061 0.346729 22.7921 0.691705 22.0827 1.29439L1.28664 18.9625C0.875946 19.3115 0.491356 19.7668 0.302704 20.3771L0.20193 20.3341C0.0618441 20.7745 0.0225355 21.2579 0.0952336 21.6462L4.96768 48.492C5.03476 48.9492 5.30901 49.4234 5.68966 49.8714C6.0703 50.3194 6.53123 50.635 6.93433 50.8068L32.5767 59.878C33.4893 60.1955 34.8034 59.8506 35.5127 59.2479L56.3461 41.548C56.6765 41.3316 56.9808 41.0088 57.19 40.5739ZM19.685 38.0454C22.5715 41.4429 26.9759 42.8438 31.071 42.0646L32.3254 49.2917C25.7628 50.4958 18.7157 48.2544 14.0846 42.8034C7.16959 34.6642 8.16355 22.4413 16.3028 15.5263C24.442 8.61129 36.6649 9.60525 43.5799 17.7445C48.2427 23.2328 49.2787 30.5811 46.9927 36.8947L40.0689 34.42C41.5369 30.4729 40.866 25.9 37.9795 22.5025C33.6973 17.4622 26.1011 16.8444 21.0608 21.1267C16.0205 25.4089 15.4027 33.0051 19.685 38.0454Z" fill="white" fill-opacity="0.61"/>
</svg>
