<svg width="189" height="161" viewBox="0 0 189 161" fill="none" xmlns="http://www.w3.org/2000/svg">
<path d="M77.1234 84.784C78.3088 84.8982 79.4844 85.112 80.6363 85.4229L79.7119 85.1686L110.49 93.4891C111.825 93.85 113.147 94.0232 114.449 94.0357C120.594 94.0963 126.029 90.4393 127.617 84.563L134.176 60.3015C136.043 53.3945 131.176 46.5114 124.033 43.3502C119.508 41.3436 112.683 39.1395 107.984 37.8925C103.285 36.6478 98.6941 35.8001 94.5761 35.3868C82.4416 34.1429 79.2448 37.5625 77.2574 44.9144L75.1037 52.8809L103.563 60.5745L102.36 65.0249L64.6573 54.8325C54.0953 51.9773 42.3238 61.5016 38.2817 76.1301C38.2621 76.2003 38.2416 76.27 38.2226 76.3403C37.5065 78.9892 37.0936 81.6227 36.958 84.178C36.3359 95.8493 41.5134 105.884 50.2199 108.238L54.7201 109.454L58.1741 96.6773C60.1914 89.2154 68.0365 83.9022 77.1234 84.784ZM89.3238 51.6515C86.4802 50.8828 84.7556 48.0929 85.4789 45.4177C86.2055 42.7296 89.1009 41.1675 91.9498 41.9376C94.788 42.7049 96.5171 45.5169 95.7903 48.2052C95.0674 50.8806 92.1667 52.4201 89.3238 51.6515Z" fill="white" fill-opacity="0.77"/>
<path d="M153.376 97.4874C153.403 86.5938 148.32 77.4529 140.063 75.2207L135.563 74.0041L132.505 85.3171C129.954 94.7507 121.501 99.7958 113.12 98.7859C112.274 98.6851 111.435 98.5227 110.611 98.3003L79.8218 89.9769C78.5167 89.6229 77.1743 89.4278 75.8277 89.3962C69.7816 89.2595 64.3815 92.5488 62.8298 98.2887L56.2708 122.551C54.4036 129.458 60.7107 135.519 67.4391 139.465C75.4917 144.188 84.8448 147.175 96.007 147.188C103.416 147.203 111.202 145.29 113.189 137.938L115.179 130.577L86.72 122.884L87.9231 118.433L125.626 128.626C133.108 130.649 141.197 126.458 146.716 118.643C149.025 115.373 150.884 111.469 152.06 107.118C152.945 103.845 153.368 100.595 153.376 97.4874ZM100.982 131.163C103.825 131.931 105.549 134.721 104.826 137.396C104.1 140.08 101.199 141.645 98.3558 140.876C95.5167 140.109 93.7897 137.292 94.5153 134.608C95.2395 131.93 98.1378 130.394 100.982 131.163Z" fill="white" fill-opacity="0.77"/>
</svg>
