<svg width="165" height="184" viewBox="0 0 165 184" fill="none" xmlns="http://www.w3.org/2000/svg">
<g clip-path="url(#clip0_4_755)">
<path d="M49.0514 132.034C49.0514 132.034 42.7787 134.699 52.486 137.306C64.2486 140.459 70.3942 141.138 83.9548 140.445C83.9548 140.445 87.1016 143.209 91.6604 145.871C60.1851 154.801 24.8534 135.441 49.0514 132.034ZM47.9244 114.283C47.9244 114.283 40.7329 118.34 50.465 120.835C63.0515 124.057 73.1295 125.627 91.1116 124.645C91.1116 124.645 93.1542 127.547 96.7507 129.49C59.4345 135.221 21.0731 119.436 47.9244 114.283Z" fill="white" fill-opacity="0.61"/>
<path d="M82.6022 89.4491C88.6292 99.2457 78.2925 105.778 78.2925 105.778C78.2925 105.778 98.2276 98.5004 91.5341 84.8093C85.2762 72.0447 80.0262 65.3954 115.837 50.2459C115.837 50.2472 62.1936 56.2327 82.6022 89.4491Z" fill="white" fill-opacity="0.61"/>
<path d="M113.162 154.301C113.162 154.301 116.902 158.587 107.518 160.126C89.6783 163.049 35.4771 156.879 21.47 147.92C16.4376 144.699 27.0296 142.77 30.3112 142.514C33.7331 142.245 35.6058 142.654 35.6058 142.654C30.248 137.393 -4.37421 145.698 17.1909 152.628C75.9992 171.516 127.733 163.911 113.162 154.301ZM56.8985 97.3492C56.8985 97.3492 28.4693 100.18 45.8414 105.21C53.1775 107.335 68.1303 109.25 82.2112 110.043C93.7159 110.689 105.424 110.211 105.424 110.211C105.424 110.211 101.163 111.422 97.9665 113.063C68.9842 116.679 15.655 105.344 32.2857 99.7709C46.3453 95.058 56.8985 97.3492 56.8985 97.3492ZM101.996 133.14C132.549 121.892 121.575 105.257 112.142 105.922C109.836 106.084 108.772 106.362 108.772 106.362C108.772 106.362 109.801 105.122 111.473 104.766C130.521 100.753 140.653 128.934 101.318 133.836C101.318 133.834 101.812 133.487 101.996 133.14Z" fill="white" fill-opacity="0.61"/>
<path d="M101.563 15.3635C101.563 15.3635 114.89 33.9898 80.6827 54.7239C53.2483 71.3637 70.516 85.6011 74.1996 99.5564C61.8285 84.0324 53.04 70.6682 61.6751 60.6593C74.3542 45.9715 104.139 42.2605 101.563 15.3635Z" fill="white" fill-opacity="0.61"/>
<path d="M49.5304 168.015C76.4626 173.754 118.641 176.966 121.566 163.698C121.566 163.698 118.931 168.507 97.7728 169.569C73.9019 170.771 45.3425 166.105 28.7857 160.732C28.7855 160.733 31.8307 164.236 49.5304 168.015Z" fill="white" fill-opacity="0.61"/>
</g>
<defs>
<clipPath id="clip0_4_755">
<rect width="156.475" height="163.06" fill="white" transform="translate(9.30615) rotate(8.21746)"/>
</clipPath>
</defs>
</svg>
