<svg width="98" height="98" viewBox="0 0 98 98" fill="none" xmlns="http://www.w3.org/2000/svg">
<g clip-path="url(#clip0_4_731)">
<path d="M1.33447 19.4745L18.9589 97.5251L97.0094 79.9006L79.385 1.85008L1.33447 19.4745ZM57.1473 77.0439C56.5253 79.6403 54.675 81.6728 52.2984 82.9879C48.5907 84.7687 44.7368 85.1016 41.5762 84.0592C39.4553 83.3376 37.6043 81.9077 36.162 80.105C37.869 78.4483 39.5694 76.7853 41.2765 75.1286C41.3339 75.1392 41.5522 75.3861 41.8439 75.7029C42.8862 76.8017 43.7423 77.552 45.1686 77.8904C46.5274 78.0344 49.3557 77.6867 49.9244 75.2255C50.3233 73.9507 49.2781 70.297 48.372 66.2842C46.9478 59.977 45.5771 53.7678 44.1355 47.3833L51.4353 45.735C52.949 52.4387 54.5041 59.1514 55.9782 65.8536C56.9195 69.9528 58.1187 73.6032 57.1473 77.0439ZM86.9681 68.1425C86.3921 77.3967 72.305 80.8738 65.3585 76.4138C63.8592 75.3343 62.9517 74.7975 61.8865 73.3998C64.5014 70.9929 64.5014 70.9929 67.0425 68.642C69.1824 70.7249 70.9544 71.7349 73.7193 71.6872C77.4017 71.3144 80.7303 69.2706 79.0629 65.6473C77.5302 62.7248 70.8528 63.4384 65.6729 61.1142C60.4943 59.1094 57.7851 52.0098 60.532 46.9835C61.4137 45.154 63.2523 43.5227 65.3289 42.4693L67.5613 41.6533C71.9553 40.5667 74.9791 41.108 77.5155 42.9152C78.2081 43.359 78.8061 43.8714 79.9708 45.0133C77.9575 47.0432 77.9616 47.0266 75.085 49.9696C74.014 48.5811 72.6023 47.8777 71.2452 47.7411C69.1534 47.5896 66.8277 48.7937 66.7839 50.9791C66.751 51.6575 66.9224 52.2426 67.4419 53.2314C68.6438 54.863 71.4848 55.0471 74.1217 55.605C81.6302 56.8425 84.6267 59.306 86.002 62.7384C87.2428 65.6795 87.0083 67.8215 86.9731 68.1414L86.9681 68.1425Z" fill="white" fill-opacity="0.61"/>
</g>
<defs>
<clipPath id="clip0_4_731">
<rect y="18.0209" width="81.8156" height="81.8156" rx="14.6023" transform="rotate(-12.7244 0 18.0209)" fill="white"/>
</clipPath>
</defs>
</svg>
