<?xml version="1.0" encoding="UTF-8" standalone="no"?>
<!-- Created with Inkscape (http://www.inkscape.org/) -->

<svg
   width="43.200001mm"
   height="43.299999mm"
   viewBox="0 0 43.200002 43.299999"
   version="1.1"
   id="svg1"
   xml:space="preserve"
   sodipodi:docname="logo.svg"
   inkscape:version="1.3.1 (9b9bdc1480, 2023-11-25, custom)"
   xmlns:inkscape="http://www.inkscape.org/namespaces/inkscape"
   xmlns:sodipodi="http://sodipodi.sourceforge.net/DTD/sodipodi-0.dtd"
   xmlns="http://www.w3.org/2000/svg"
   xmlns:svg="http://www.w3.org/2000/svg"><sodipodi:namedview
     id="namedview1"
     pagecolor="#ffffff"
     bordercolor="#000000"
     borderopacity="0.25"
     inkscape:showpageshadow="2"
     inkscape:pageopacity="0.0"
     inkscape:pagecheckerboard="0"
     inkscape:deskcolor="#d1d1d1"
     inkscape:document-units="mm"
     inkscape:zoom="1.6819304"
     inkscape:cx="143.58501"
     inkscape:cy="198.28407"
     inkscape:window-width="1854"
     inkscape:window-height="1123"
     inkscape:window-x="66"
     inkscape:window-y="40"
     inkscape:window-maximized="1"
     inkscape:current-layer="layer1" /><defs
     id="defs1" /><g
     inkscape:label="Layer 1"
     inkscape:groupmode="layer"
     id="layer1"><g
       id="g1"><path
         id="circle1"
         style="fill:#fbc208;fill-opacity:1;stroke:none;stroke-width:0.21591"
         d="m 12.333533,2.7336833 a 9.4195967,9.4195967 0 0 0 -9.4195803,9.4195797 9.4195967,9.4195967 0 0 0 9.3684203,9.414413 l 0.483175,0.09767 0.0015,0.0016 a 9.4195967,9.4195967 0 0 1 8.893514,8.767423 9.4195967,9.4195967 0 0 0 -0.05943,0.82734 9.4195967,9.4195967 0 0 0 9.41958,9.41958 9.4195967,9.4195967 0 0 0 9.41958,-9.41958 9.4195967,9.4195967 0 0 0 -9.41958,-9.41958 9.4195967,9.4195967 0 0 0 -0.109037,0.0078 l -0.0124,-0.0124 a 9.4195967,9.4195967 0 0 1 -9.201973,-8.904985 9.4195967,9.4195967 0 0 0 0.05581,-0.779281 9.4195967,9.4195967 0 0 0 -9.41958,-9.4195797 z" /><circle
         style="fill:#e7235b;fill-opacity:1;stroke:none;stroke-width:0.21591"
         id="circle188261"
         cx="9.4582539"
         cy="33.368088"
         r="9.4195967" /><circle
         style="fill:#0654fc;fill-opacity:1;stroke:none;stroke-width:0.21591"
         id="path188259"
         cx="33.741749"
         cy="9.9319134"
         r="9.4195967" /><g
         id="text188261"
         transform="matrix(0.76147631,0,0,1.3132385,-1.5133566,-9.5367432e-7)"><path
           style="color:#000000;fill:#ffffff;-inkscape-stroke:none"
           d="m 16.409213,23.513438 -5.344884,1.900749 5.344884,1.89039 v 0.942605 L 9.7695418,25.838877 v -0.859739 l 6.6396712,-2.408305 z"
           id="path188288" /><path
           style="color:#000000;fill:#ffffff;-inkscape-stroke:none"
           d="m 16.851562,21.939453 -7.523437,2.730469 v 1.478515 l 7.523437,2.728516 v -1.884766 l -4.466796,-1.578125 4.466796,-1.58789 z m -0.884765,1.261719 v 0.002 l -0.123047,0.04297 z"
           id="path188289" /></g><g
         id="text188262"
         transform="matrix(0.76147631,0,0,1.3132385,0.26960983,-9.5367432e-7)"><path
           style="color:#000000;fill:#ffffff;-inkscape-stroke:none"
           d="M 41.659558,5.6673481 V 4.7247427 l 6.639671,2.408305 v 0.859739 L 41.659558,10.401092 V 9.4584863 l 5.334525,-1.8903899 z"
           id="path188286" /><path
           style="color:#000000;fill:#ffffff;-inkscape-stroke:none"
           d="m 41.216797,4.09375 v 1.8847656 l 4.458984,1.5878906 -4.458984,1.5800782 V 11.03125 L 48.740234,8.3027344 V 6.8222656 Z"
           id="path188287" /></g><path
         style="fill:#ffffff;fill-opacity:1;stroke-width:0.375048"
         d="m 35.115935,34.488712 c -0.314394,0.78776 -1.091797,1.32132 -1.925186,1.32132 -0.662045,0 -1.037621,-0.21088 -1.608534,-0.90317 -0.260688,-0.31611 -1.05448,-1.2842 -1.763983,-2.1513 -0.709504,-0.86711 -2.104943,-2.53022 -3.100979,-3.69581 -0.996033,-1.16559 -1.81097,-2.12921 -1.81097,-2.14139 0,-0.0122 0.335934,-0.3264 0.746521,-0.69827 l 0.746517,-0.67612 1.312532,1.13221 c 1.686269,1.45461 4.69202,3.9562 6.052137,5.03702 0.735487,0.58445 1.122994,0.96735 1.261893,1.24691 0.213919,0.43054 0.254353,1.11691 0.09005,1.5286 z"
         id="path188270" /><path
         style="fill:#ffffff;fill-opacity:1;stroke-width:0.352037"
         d="m 19.003726,19.155212 -0.540081,0.59224 -1.244963,-1.22864 c -1.653405,-1.63174 -1.803455,-1.70322 -3.577834,-1.70445 -1.184337,-7e-4 -1.350192,-0.0214 -1.696837,-0.21049 -0.366037,-0.19966 -1.525828,-1.44111 -4.1986776,-4.4943 -1.413254,-1.61435 -1.606746,-1.95229 -1.295812,-2.26322 0.32448,-0.32448 0.515477,-0.17291 3.3810935,2.68252 1.9055721,1.89881 2.8673591,2.7943 3.0012171,2.79429 0.528699,0 0.762599,-0.37034 0.546964,-0.86602 -0.07136,-0.16405 -1.328522,-1.49255 -2.79368,-2.95223 -2.0847406,-2.07695 -2.6636226,-2.70474 -2.6625056,-2.88744 0.0021,-0.32051 0.09521,-0.44028 0.402922,-0.51752 0.247205,-0.0621 0.420812,0.0911 2.9330746,2.58738 1.468671,1.45932 2.77394,2.72216 2.900606,2.80629 0.311853,0.20713 0.615174,0.19235 0.848917,-0.0414 0.143069,-0.14306 0.178443,-0.2598 0.134039,-0.44242 -0.03814,-0.15701 -1.069452,-1.26061 -2.809223,-3.00626 -2.5977041,-2.60647 -2.7472481,-2.77502 -2.7187601,-3.06433 0.04174,-0.42387 0.262636,-0.5441 0.6538411,-0.35586 0.624016,0.30026 5.959457,5.09013 6.193358,5.56006 0.139554,0.28038 0.16455,0.53138 0.144742,1.45381 -0.04006,1.86566 0.161369,2.28348 1.919782,3.98233 l 1.017895,0.98342 z"
         id="path188278" /></g></g></svg>
