<?xml version="1.0" encoding="UTF-8" standalone="no"?>
<!-- Created with Inkscape (http://www.inkscape.org/) -->

<svg
   width="52.130001mm"
   height="57.099998mm"
   viewBox="0 0 52.130001 57.099998"
   version="1.1"
   id="svg1"
   xml:space="preserve"
   inkscape:version="1.3.1 (9b9bdc1480, 2023-11-25, custom)"
   sodipodi:docname="logo.svg"
   xmlns:inkscape="http://www.inkscape.org/namespaces/inkscape"
   xmlns:sodipodi="http://sodipodi.sourceforge.net/DTD/sodipodi-0.dtd"
   xmlns="http://www.w3.org/2000/svg"
   xmlns:svg="http://www.w3.org/2000/svg"><sodipodi:namedview
     id="namedview1"
     pagecolor="#5318eb"
     bordercolor="#000000"
     borderopacity="0.25"
     inkscape:showpageshadow="2"
     inkscape:pageopacity="0.0"
     inkscape:pagecheckerboard="0"
     inkscape:deskcolor="#d1d1d1"
     inkscape:document-units="mm"
     inkscape:zoom="0.5946522"
     inkscape:cx="182.4596"
     inkscape:cy="520.4723"
     inkscape:window-width="1854"
     inkscape:window-height="1123"
     inkscape:window-x="66"
     inkscape:window-y="40"
     inkscape:window-maximized="1"
     inkscape:current-layer="layer1" /><defs
     id="defs1"><linearGradient
       id="swatch6"><stop
         style="stop-color:#0077cc;stop-opacity:1;"
         offset="0"
         id="stop6" /></linearGradient></defs><g
     inkscape:label="Layer 1"
     inkscape:groupmode="layer"
     id="layer1"><g
       id="g9"
       transform="translate(-55.46525,-174.61104)"><g
         id="g4"
         style="fill:#eaeaea;fill-opacity:1;stroke:#000000;stroke-opacity:1"><path
           style="fill:#eaeaea;fill-opacity:1;stroke:#000000;stroke-opacity:1"
           d="m 94.202655,217.65222 c -0.9425,-0.51212 -1.60551,-2.20089 -1.29253,-3.29221 0.14265,-0.49736 1.52701,-2.19884 3.46403,-4.25753 l 3.22642,-3.42909 -3.09953,-3.19189 c -1.70475,-1.75554 -3.26453,-3.58676 -3.46617,-4.06936 -0.98227,-2.3509 1.56955,-4.89617 3.76865,-3.75897 0.42845,0.22156 2.75077,2.47426 5.160715,5.00599 4.69068,4.92773 5.0415,5.49912 4.36672,7.11216 -0.20415,0.48802 -2.44332,3.00385 -4.97594,5.59073 -4.269395,4.36088 -4.672185,4.70213 -5.530795,4.68576 -0.50932,-0.01 -1.23903,-0.18773 -1.62157,-0.39559 z"
           id="path3" /><path
           style="fill:#eaeaea;fill-opacity:1;stroke:#000000;stroke-opacity:1"
           d="m 61.705481,226.01158 c -2.53262,-2.58688 -4.77179,-5.10271 -4.975941,-5.59073 -0.674778,-1.61304 -0.323954,-2.18443 4.366721,-7.11216 2.40995,-2.53173 4.73227,-4.78443 5.16072,-5.00599 2.1991,-1.1372 4.75092,1.40807 3.76866,3.75897 -0.20165,0.4826 -1.7601,2.31245 -3.46323,4.06633 l -3.0966,3.18887 3.34044,3.56918 c 3.21379,3.43386 3.49629,3.87671 3.38174,5.30127 -0.1166,1.44996 -1.37718,2.50744 -3.00472,2.52061 -0.78549,0.006 -1.33477,-0.46456 -5.47779,-4.69635 z"
           id="path2" /></g><path
         style="opacity:1;fill:#ffd700;fill-opacity:1;stroke-width:1.65755"
         d="m 79.112255,230.24037 c -1.98773,-1.08718 -2.01173,-1.26727 -1.71387,-12.8591 l 0.28199,-10.97451 -1.51855,-1.75423 c -2.51143,-2.90126 -2.61915,-3.29599 -2.28022,-8.35571 0.22725,-3.3926 0.45995,-4.58179 0.89655,-4.58179 0.88601,0 1.19067,1.89487 0.92584,5.75848 l -0.23791,3.47102 2.02808,2.48967 2.02806,2.48966 -0.0918,5.50415 c -0.0506,3.0273 -0.21716,8.01577 -0.37033,11.08548 l -0.2785,5.5813 1.10505,0.42014 c 1.28917,0.49014 2.80004,0.1942 3.10818,-0.60883 0.11852,-0.30882 0.0373,-5.12177 -0.18036,-10.69549 -0.22476,-5.75443 -0.23112,-10.5672 -0.0149,-11.13642 0.20961,-0.55132 1.09383,-1.85549 1.96494,-2.89812 1.57276,-1.88248 1.58381,-1.92455 1.58381,-6.02054 0,-3.83245 0.0622,-4.12483 0.87713,-4.12483 0.77487,0 0.87769,0.29399 0.88195,2.52171 0.003,1.38695 0.1205,3.22123 0.26202,4.07617 0.21953,1.32667 0.028,1.84079 -1.30688,3.50848 -2.88433,3.60341 -2.80256,3.12002 -2.40745,14.23369 0.39763,11.18476 0.25384,12.1505 -1.92209,12.90902 -1.66898,0.58182 -2.50172,0.57275 -3.62089,-0.0395 z m -1.7838,-31.64654 c -0.11868,-0.30907 -0.16045,-3.31536 -0.093,-6.68064 0.10194,-5.092 0.23299,-6.11871 0.78044,-6.11871 1.00966,0 1.21749,12.71304 0.21411,13.09807 -0.37723,0.14471 -0.78291,0.01 -0.90151,-0.29872 z m 3.38896,0.033 c -0.74169,-0.74168 -0.67527,-7.54324 0.0797,-8.16989 0.9701,-0.80511 1.16569,-0.10775 1.16569,4.15601 0,4.0593 -0.28419,4.97518 -1.24546,4.01388 z m 3.08595,0.15846 c -0.86585,-0.53512 -0.5394,-7.28952 0.35233,-7.28952 0.51835,0 0.68524,0.73505 0.78713,3.46687 0.13194,3.53764 -0.13757,4.44185 -1.13946,3.82265 z m -12.53768,-8.52472 c -3.81354,-4.04352 -2.80916,-10.83307 2.04644,-13.83401 6.64686,-4.10798 15.29377,2.06731 13.53905,9.6691 -0.61243,2.65321 -2.00619,4.74226 -3.1639,4.74226 -1.08407,0 -1.07491,-0.66864 0.0283,-2.07123 3.15768,-4.01435 1.141,-10.05195 -3.85781,-11.54962 -5.05689,-1.51508 -10.41891,3.76291 -8.91667,8.77694 0.28583,0.95397 1.00779,2.31458 1.60439,3.02358 1.17691,1.39869 1.34012,2.04927 0.62503,2.49124 -0.25285,0.15631 -1.11005,-0.40547 -1.90491,-1.24826 z m 2.57392,-3.10401 c -1.76582,-2.69499 -0.87242,-6.02507 2.01733,-7.51941 4.00047,-2.06873 8.58475,2.30538 6.82648,6.51351 -0.73649,1.76267 -1.80625,2.46129 -2.58158,1.68594 -0.35621,-0.35619 -0.27005,-0.72554 0.32184,-1.37956 1.82247,-2.01382 0.34033,-5.41359 -2.36008,-5.41359 -2.55038,0 -4.03795,2.37921 -2.90611,4.64804 0.36607,0.73379 0.66557,1.59986 0.66557,1.92463 0,0.96119 -1.24092,0.67369 -1.98345,-0.45956 z"
         id="path4" /></g></g></svg>
