<svg width="114" height="99" viewBox="0 0 114 99" fill="none" xmlns="http://www.w3.org/2000/svg">
<g clip-path="url(#clip0_4_775)">
<path d="M70.4572 65.7402C51.1948 71.6412 31.8686 67.0083 28.328 55.4508C24.7873 43.8933 36.2864 29.8538 55.5488 23.9528C79.8763 16.5001 94.0172 22.4047 97.5579 33.9622C101.098 45.5197 91.7057 59.2308 70.4572 65.7402ZM46.2294 14.1656C21.1882 21.8369 4.12997 41.8118 9.44092 59.1481C14.4569 75.5215 39.6817 82.6623 64.7233 74.9909C89.7645 67.3195 107.212 48.1593 101.901 30.823C96.5902 13.4867 71.2706 6.49426 46.2294 14.1656Z" fill="white" fill-opacity="0.73"/>
<path d="M43.9993 35.3212L59.6122 86.2859L75.0137 81.5677L68.9421 61.7483C72.7926 60.5687 74.8284 59.0253 78.7617 62.8694C84.636 68.2964 92.3403 76.2597 92.3403 76.2597L110.629 70.6569C110.629 70.6569 93.2958 55.3199 92.0442 54.671C89.6907 53.327 87.6154 53.9628 84.4387 53.9036C89.9251 51.1906 94.5753 47.1447 94.8743 41.4368C95.0652 36.2167 93.0338 30.273 88.293 27.3223C84.2794 25.0678 80.5778 24.1154 72.8768 26.4746L43.9993 35.3212ZM62.6524 41.2171L72.7594 38.1208C75.1562 37.3866 77.8138 39.1534 78.5366 41.5126C79.2594 43.8721 78.0572 46.8214 75.6507 47.5586L65.5436 50.6549L62.6524 41.2171Z" fill="white" fill-opacity="0.73"/>
</g>
<defs>
<clipPath id="clip0_4_775">
<rect width="96.7016" height="72.913" fill="white" transform="translate(0 28.3251) rotate(-17.0324)"/>
</clipPath>
</defs>
</svg>
