<svg width="75" height="66" viewBox="0 0 75 66" fill="none" xmlns="http://www.w3.org/2000/svg">
<path d="M46.0219 0.665284C78.8473 22.5706 68.2026 46.6413 68.2026 46.6413C68.2026 46.6413 77.5266 56.9593 73.7793 65.9986C73.7793 65.9986 69.9106 59.6846 63.4893 59.6846C57.2826 59.6846 53.6099 65.9986 41.0799 65.9986C13.2106 65.9986 -0.000733083 43.16 -0.000733083 43.16C25.1153 59.4 42.2746 47.892 42.2746 47.892C30.9346 41.4613 6.8826 10.6659 6.8826 10.6659C27.8499 28.1706 36.8986 32.7673 36.8986 32.7673C31.4573 28.3993 16.2953 6.99328 16.2953 6.99328C28.4286 19.0286 52.5459 35.81 52.5459 35.81C59.4619 17.2646 46.0219 0.665284 46.0219 0.665284Z" fill="white" fill-opacity="0.61"/>
</svg>
